<?xml version="1.0" encoding="UTF-8" standalone="no"?>
<svg
   xmlns:dc="http://purl.org/dc/elements/1.1/"
   xmlns:cc="http://creativecommons.org/ns#"
   xmlns:rdf="http://www.w3.org/1999/02/22-rdf-syntax-ns#"
   xmlns:svg="http://www.w3.org/2000/svg"
   xmlns="http://www.w3.org/2000/svg"
   xmlns:sodipodi="http://sodipodi.sourceforge.net/DTD/sodipodi-0.dtd"
   xmlns:inkscape="http://www.inkscape.org/namespaces/inkscape"
   inkscape:version="1.0 (4035a4fb49, 2020-05-01)"
   sodipodi:docname="gmail.svg"
   version="1.1"
   width="512"
   viewBox="0 0 512 512"
   height="512"
   enable-background="new 0 0 512 512"
   id="Capa_1">
  <metadata
     id="metadata9">
    <rdf:RDF>
      <cc:Work
         rdf:about="">
        <dc:format>image/svg+xml</dc:format>
        <dc:type
           rdf:resource="http://purl.org/dc/dcmitype/StillImage" />
      </cc:Work>
    </rdf:RDF>
  </metadata>
  <defs
     id="defs7" />
  <sodipodi:namedview
     inkscape:current-layer="Capa_1"
     inkscape:window-maximized="1"
     inkscape:window-y="-8"
     inkscape:window-x="1016"
     inkscape:cy="256"
     inkscape:cx="256"
     inkscape:zoom="1.0507812"
     showgrid="false"
     id="namedview5"
     inkscape:window-height="705"
     inkscape:window-width="1366"
     inkscape:pageshadow="2"
     inkscape:pageopacity="0"
     guidetolerance="10"
     gridtolerance="10"
     objecttolerance="10"
     borderopacity="1"
     bordercolor="#666666"
     pagecolor="#ffffff" />
  <path
     style="fill:#ffffff"
     id="path2"
     d="m467 61h-422c-24.813 0-45 20.187-45 45v300c0 24.813 20.187 45 45 45h422c24.813 0 45-20.187 45-45v-300c0-24.813-20.187-45-45-45zm-65.19 30-145.81 108.785-145.81-108.785zm-356.81 0h15.021l187.009 139.523c2.661 1.985 5.815 2.977 8.97 2.977s6.309-.992 8.97-2.977l187.009-139.523h15.021c8.265 0 14.989 6.719 14.999 14.982l-225.999 168.796-225.999-168.796c.01-8.263 6.734-14.982 14.999-14.982zm202.024 214.518c2.662 1.988 5.819 2.982 8.976 2.982s6.314-.994 8.976-2.982l157.024-117.28v232.762h-332v-232.762zm-217.024 100.482v-262.575l30 22.407v255.168h-15c-8.271 0-15-6.729-15-15zm437 15h-15v-255.168l30-22.407v262.575c0 8.271-6.729 15-15 15z" />
</svg>
