<?xml version="1.0" encoding="UTF-8" standalone="no"?>
<svg
   xmlns:dc="http://purl.org/dc/elements/1.1/"
   xmlns:cc="http://creativecommons.org/ns#"
   xmlns:rdf="http://www.w3.org/1999/02/22-rdf-syntax-ns#"
   xmlns:svg="http://www.w3.org/2000/svg"
   xmlns="http://www.w3.org/2000/svg"
   xmlns:sodipodi="http://sodipodi.sourceforge.net/DTD/sodipodi-0.dtd"
   xmlns:inkscape="http://www.inkscape.org/namespaces/inkscape"
   inkscape:version="1.0 (4035a4fb49, 2020-05-01)"
   sodipodi:docname="linkedin.svg"
   id="svg10"
   version="1.1"
   viewBox="0 0 512 512">
  <metadata
     id="metadata16">
    <rdf:RDF>
      <cc:Work
         rdf:about="">
        <dc:format>image/svg+xml</dc:format>
        <dc:type
           rdf:resource="http://purl.org/dc/dcmitype/StillImage" />
      </cc:Work>
    </rdf:RDF>
  </metadata>
  <defs
     id="defs14" />
  <sodipodi:namedview
     inkscape:current-layer="svg10"
     inkscape:window-maximized="1"
     inkscape:window-y="-8"
     inkscape:window-x="1016"
     inkscape:cy="256"
     inkscape:cx="256"
     inkscape:zoom="1.0507812"
     showgrid="false"
     id="namedview12"
     inkscape:window-height="705"
     inkscape:window-width="1366"
     inkscape:pageshadow="2"
     inkscape:pageopacity="0"
     guidetolerance="10"
     gridtolerance="10"
     objecttolerance="10"
     borderopacity="1"
     bordercolor="#666666"
     pagecolor="#ffffff" />
  <path
     style="fill:#ffffff"
     id="path2"
     d="m437 0h-362c-41.355469 0-75 33.644531-75 75v362c0 41.355469 33.644531 75 75 75h362c41.355469 0 75-33.644531 75-75v-362c0-41.355469-33.644531-75-75-75zm45 437c0 24.8125-20.1875 45-45 45h-362c-24.8125 0-45-20.1875-45-45v-362c0-24.8125 20.1875-45 45-45h362c24.8125 0 45 20.1875 45 45zm0 0" />
  <path
     style="fill:#ffffff"
     id="path4"
     d="m91 422h90v-212h-90zm30-182h30v152h-30zm0 0" />
  <path
     style="fill:#ffffff"
     id="path6"
     d="m331.085938 210c-.027344 0-.058594 0-.085938 0-10.371094 0-20.472656 1.734375-30 5.101562v-5.101562h-90v212h90v-107c0-8.269531 6.730469-15 15-15s15 6.730469 15 15v107h90v-117.3125c0-48.546875-39.382812-94.640625-89.914062-94.6875zm59.914062 182h-30v-77c0-24.8125-20.1875-45-45-45s-44.996094 20.1875-45 44.996094v77.003906h-30v-152h30v30.019531l24.007812-18.03125c10.441407-7.84375 22.886719-11.988281 35.992188-11.988281h.058594c31.929687.03125 59.941406 30.257812 59.941406 64.6875zm0 0" />
  <path
     style="fill:#ffffff"
     id="path8"
     d="m91 180h90v-90h-90zm30-60h30v30h-30zm0 0" />
</svg>
